<?xml version="1.0" encoding="utf-8"?>
<!-- Generator: Adobe Illustrator 17.0.0, SVG Export Plug-In . SVG Version: 6.00 Build 0)  -->
<!DOCTYPE svg PUBLIC "-//W3C//DTD SVG 1.1//EN" "http://www.w3.org/Graphics/SVG/1.1/DTD/svg11.dtd">
<svg version="1.1" id="Layer_1" xmlns="http://www.w3.org/2000/svg" xmlns:xlink="http://www.w3.org/1999/xlink" x="0px" y="0px"
	 width="116.901px" height="118.857px" viewBox="0 0 116.901 118.857" enable-background="new 0 0 116.901 118.857"
	 xml:space="preserve">
<g>
	<g>
		<g>
			<g>
				<defs>
					<rect id="SVGID_1_" x="0.204" y="1.178" width="116.493" height="116.5"/>
				</defs>
				<clipPath id="SVGID_2_">
					<use xlink:href="#SVGID_1_"  overflow="visible"/>
				</clipPath>
				<g clip-path="url(#SVGID_2_)">
					<g>
						<g>
							<defs>
								<rect id="SVGID_3_" x="0.204" y="1.178" width="116.493" height="116.5"/>
							</defs>
							<clipPath id="SVGID_4_">
								<use xlink:href="#SVGID_3_"  overflow="visible"/>
							</clipPath>
							<path clip-path="url(#SVGID_4_)" fill="#FFCA26" d="M62.474,1.382c-0.34-0.054-0.647-0.204-1.007-0.204H7.011
								c-3.757,0-6.807,3.043-6.807,6.807V62.44c0,0.354,0.15,0.66,0.204,1.001c2.069,30.284,27.228,54.237,58.042,54.237
								c32.169,0,58.247-26.084,58.247-58.253C116.698,28.617,92.758,3.458,62.474,1.382"/>
						</g>
					</g>
				</g>
				<g clip-path="url(#SVGID_2_)">
					<g>
						<g>
							<g>
								<defs>
									<rect id="SVGID_5_" x="13.083" y="13.206" width="90.743" height="92.438"/>
								</defs>
								<clipPath id="SVGID_6_">
									<use xlink:href="#SVGID_5_"  overflow="visible"/>
								</clipPath>
								<g clip-path="url(#SVGID_6_)">
									<g>
										<g>
											<defs>
												<rect id="SVGID_7_" x="13.083" y="13.206" width="90.743" height="92.438"/>
											</defs>
											<clipPath id="SVGID_8_">
												<use xlink:href="#SVGID_7_"  overflow="visible"/>
											</clipPath>
										</g>
									</g>
								</g>
							</g>
						</g>
					</g>
				</g>
			</g>
		</g>
	</g>
</g>
</svg>
