<?xml version="1.0" encoding="utf-8"?>
<!-- Generator: Adobe Illustrator 17.0.0, SVG Export Plug-In . SVG Version: 6.00 Build 0)  -->
<!DOCTYPE svg PUBLIC "-//W3C//DTD SVG 1.1//EN" "http://www.w3.org/Graphics/SVG/1.1/DTD/svg11.dtd">
<svg version="1.1" id="Layer_1" xmlns="http://www.w3.org/2000/svg" xmlns:xlink="http://www.w3.org/1999/xlink" x="0px" y="0px"
	 width="116.901px" height="118.857px" viewBox="0 0 116.901 118.857" enable-background="new 0 0 116.901 118.857"
	 xml:space="preserve">
<g>
	<g>
		<g>
			<g>
				<defs>
					<rect id="SVGID_1_" x="0.204" y="1.178" width="116.493" height="116.5"/>
				</defs>
				<clipPath id="SVGID_2_">
					<use xlink:href="#SVGID_1_"  overflow="visible"/>
				</clipPath>
				<g clip-path="url(#SVGID_2_)">
					<g>
						<g>
							<defs>
								<rect id="SVGID_3_" x="0.204" y="1.178" width="116.493" height="116.5"/>
							</defs>
							<clipPath id="SVGID_4_">
								<use xlink:href="#SVGID_3_"  overflow="visible"/>
							</clipPath>
							<path clip-path="url(#SVGID_4_)" fill="#FFCA26" d="M62.474,1.382c-0.34-0.054-0.647-0.204-1.007-0.204H7.011
								c-3.757,0-6.807,3.043-6.807,6.807V62.44c0,0.354,0.15,0.66,0.204,1.001c2.069,30.284,27.228,54.237,58.042,54.237
								c32.169,0,58.247-26.084,58.247-58.253C116.698,28.617,92.758,3.458,62.474,1.382"/>
						</g>
					</g>
				</g>
				<g clip-path="url(#SVGID_2_)">
					<g>
						<g>
							<g>
								<defs>
									<rect id="SVGID_5_" x="13.083" y="13.206" width="90.743" height="92.438"/>
								</defs>
								<clipPath id="SVGID_6_">
									<use xlink:href="#SVGID_5_"  overflow="visible"/>
								</clipPath>
								<g clip-path="url(#SVGID_6_)">
									<g>
										<g>
											<defs>
												<rect id="SVGID_7_" x="13.083" y="13.206" width="90.743" height="92.438"/>
											</defs>
											<clipPath id="SVGID_8_">
												<use xlink:href="#SVGID_7_"  overflow="visible"/>
											</clipPath>
											<path clip-path="url(#SVGID_8_)" fill="#FFFFFF" d="M91.383,74.223l9.536,5.01c-3.131,6.133-6.739,11.095-10.836,14.859
												c-4.098,3.771-8.713,6.644-13.832,8.611c-5.126,1.96-10.918,2.947-17.385,2.947c-14.349,0-25.56-4.704-33.646-14.104
												c-8.087-9.394-12.13-20.019-12.13-31.87c0-11.157,3.417-21.095,10.265-29.814c8.686-11.102,20.305-16.65,34.858-16.65
												c14.989,0,26.955,5.691,35.906,17.051c6.364,8.025,9.604,18.045,9.707,30.059H24.723
												c0.211,10.21,3.478,18.583,9.788,25.111s14.104,9.788,23.382,9.788c4.472,0,8.829-0.776,13.062-2.328
												c4.234-1.559,7.835-3.628,10.796-6.194C84.719,84.12,87.932,79.961,91.383,74.223 M91.383,50.542
												c-1.511-6.031-3.703-10.857-6.596-14.465c-2.886-3.601-6.698-6.514-11.442-8.72c-4.751-2.205-9.741-3.322-14.968-3.322
												c-8.631,0-16.051,2.784-22.252,8.325c-4.527,4.043-7.95,10.101-10.272,18.181L91.383,50.542L91.383,50.542z"/>
										</g>
									</g>
								</g>
							</g>
						</g>
					</g>
				</g>
			</g>
		</g>
	</g>
</g>
</svg>
